<?xml version="1.0" encoding="UTF-8"?>
<svg xmlns="http://www.w3.org/2000/svg" version="1.1" viewBox="0 0 2048 2048">
  <defs>
    <style>path{fill: #ff520e;}</style>
  </defs>
  <path d="M1138,901c-68.9-25.2-277.1-120.1-292.9-211.7-5.2-26.9-9-55.1,10.4-86.9,22-36,67.9-20,94.4-46.5,27-26.8,64.7-47.4,103.5-56.3,5.4-1.3,1.2-2.4-13.3-3.7-40.8-3.4-78.7,3-96.4,16.5-6,4.6-6.3,4.7-6.7,2.8-.2-.9-.4-8.2-.4-16.2,0-16.3,1.4-23.2,8.1-36.5,12.2-24.1,37.3-48.9,65.1-64.1,5.6-3.1,10.2-5.8,10.2-6,0-.8-19-.1-31.9,1.2-53.6,5.3-105.1,19.9-154.6,43.8-95.9,46.4-164.1,115.7-188.4,191.6-15,47-15.6,106.3-1.6,162.1,15.8,62.6,45.7,121.5,99.3,195.7l10.3,14.3-6.3-3.2c-6.7-3.4-22.8-13.8-26.5-17.2-1.3-1.1-2.6-1.8-2.9-1.5-.8.9,1,4,9.1,15.2,40.8,56.4,149.9,86.1,248.2,123.6,195.5,69.3,273.7,136.4,273.7,250.5s-101.2,205.8-280.6,205.8-285.2-44.7-374.9-96.2l-64.4,228.1c85.1,51.4,255.3,96.2,420.8,96.2,397.8,0,586.4-210.2,586.4-454s-128.8-348.9-397.8-447.3h.1Z"/>
  <path d="M673.5,1146.8c.2-.2-5.7-9.6-13.1-20.8-95.3-144.8-146.5-282.8-146.4-394.4,0-8.3.5-15.8,1-16.6.8-1.3,1-1.3,1,.2s.4,1.8.8,2c.4.2,3.7,4.1,7.2,8.8,7.5,10,28,30.8,40,40.6,14.5,11.9,25,19.7,25.6,19.1.4-.3-3.9-6.4-9.4-13.5-31.4-40.3-45.3-71.9-47.1-106.7-1.7-34.8,4.2-60.4,23.7-103.1,11.2-24.5,25-45,45.1-67,10.7-11.8,15.3-15.4,10.3-8.1-3.6,5.2-7.5,12.7-6.9,13.3.2.3,2.4-1.2,4.7-3.1,5-4.2,10.2-7,17.9-9.6,9.4-3.3,9.5-3.2,4.5,8.2-12.8,29.5-22.8,68.1-26.3,101.9-1.6,15-2.5,39-1.5,39s2-2.8,3.3-6.3c3.6-9.3,15.8-37.1,20.2-45.8,35.6-71.2,98.4-136.2,176.4-182.9,16.6-9.9,52.7-27.5,72.5-35.3,21.1-8.3,49.6-17.8,62.7-20.8,5.7-1.3,10.3-2.7,10.3-3,0-1.9-28.3-3.1-42-1.8-8.2.8-18.5,2.5-28,4.6-2.2.5-1.9,0,2-3.7,15.4-14.8,52.5-31.5,90.5-40.9,37.7-9.3,82.7-14.1,121.4-12.8,13.8.5,20,.3,25-.8,9.2-1.9,33.9-5.2,50.6-6.7,20.9-1.9,84.3-1.6,108.2.5,31.9,2.8,54.8,6.1,86.7,12.3,9.8,1.9,18.6,3.3,19.5,3.1,3.5-.7-27.2-14.6-58.2-26.3-30.8-11.6-60.3-20.5-92.2-27.8-8.8-2.1-16.4-3.8-17-4-4-1.2,54.8-14.5,77.8-17.6,4.8-.7,8.7-1.6,8.7-2.1s-.9-.9-1.9-.9-8.3-.7-16.2-1.5c-53-5.6-133.2-7.9-175.2-5-125.7,8.7-245,45.6-349.8,108.1-114.2,68.1-206.6,162.3-256.3,261.4-28.3,56.5-44.1,111.2-49.6,171.5-1.4,14.8-1.1,60.7.5,78,2.7,29.2,3.9,39.5,4.6,39.5s1-3,1.3-6.8c2-22.1,5.9-43.3,11.3-61.5.7-2.4,2.3-2.2,2.3.4s1.4,7.7,3,14.7c21.5,89.8,75.9,185.2,171.7,301.3,20.7,25.1,24.3,29.2,24.8,28.7h0Z"/>
  <path d="M1577.5,656.4c-7.4-55-25.9-95.9-62.5-137.9-17.9-20.5-43.5-42.8-65-56.6-3-1.9-7.1-4.5-9-5.8l-3.5-2.2,15,.4c16.5.6,30.3,2.8,49.8,8.2,12.8,3.5,38.1,12.4,48,16.9,3.1,1.4,5.7,2.2,5.7,1.7,0-2.5-28.2-31.5-45-46.5-27.3-24.1-52.7-42.3-86.7-61.7-10.1-5.8-11.3-6.4-11.3-5.4s9,7.2,20,15.5c21,15.8,36.9,29,45.8,38.2l5.3,5.4-20.7-10.4c-11.3-5.7-20.8-10.1-21.1-9.9-.2.3,1.8,2.6,4.6,5.2,2.8,2.6,5.1,5.1,5.1,5.6s-2.5,0-5.6-1.2c-40.9-14.4-92-24.8-142.1-29-21.2-1.7-71.7-.6-90.8,2-8.2,1.1-15.3,2.1-15.7,2.1s-.8.4-.8.9,5.2,1.3,11.5,2c49.7,5,110.8,24.3,159.8,50.5l11.9,6.3-6.9.7c-19.6,1.8-28.3,3-28,3.9s5,3,10.7,5.4c27.4,11.6,60.2,28.8,81.9,43,59.8,39.1,98.6,86.1,120.9,146.3,6.7,18.3,10.8,35.5,10,43l-.3,3.4-4.4-6c-5.9-7.9-30.9-32.7-44.6-44.4-6-5.1-11.8-10-12.8-10.8-.9-.8-2-1.3-2.3-1s3,4.4,7.3,9c28.7,30.7,52.4,61.6,65.3,85.1,2.3,4.3,4.4,7.6,4.7,7.4.8-.9-2.7-68.4-4.2-79.3h0Z"/>
  <path d="M1271.9,566.7c-24.3-17.2-51.4-29.6-74.9-34.1-4.7-.9-9.5-1.9-10.7-2.2-1.3-.2-2.3,0-2.3.4s2.8,2.8,6.3,5.2c32.4,22.6,66.8,59.3,103.7,110.5,5.1,7.1,9.6,13.3,10,13.8.3.4,9.1-3.1,19.4-7.8,44-20,64.9-26.5,85.2-26.5s22.3,2.7,34.9,9c23.8,11.9,37.8,31.1,44.7,61,1.7,7.6,2.1,12.8,2.2,26,0,17.9-1.8,29.6-7.1,44.8l-2.5,7.4,2.2,1.5c6.3,4.4,14.3,11.9,18.5,17.3,2.7,3.3,5,5.8,5.3,5.6.2-.3-.8-3.9-2.2-8.1-4.1-12-4.4-19.7-1-34,2.5-10.8,2.8-13.8,2.8-30,0-25.5-3.7-42.4-14.4-65.2-25.4-54-78.9-91.3-148-103.2-6.3-1.1-13.9-2.1-16.9-2.3l-5.4-.3-1.4,5.5c-.7,3-3.2,9.3-5.4,13.9l-4.1,8.3-1.9-2.8c-1.1-1.6-3.7-5.6-5.9-9-7.2-11.1-26.1-26.9-35.8-29.9-2.1-.6-2-.2,1.3,4.1,4.8,6.3,8,12.7,9.9,19.9.8,3.3,1.4,6,1.3,6.2-.2,0-3.7-2.1-7.8-5h0Z"/>
  <path d="M1074,566.9c19.2-4.1,44.8-3.6,66,1.2,32.1,7.2,73.4,27.3,98.4,47.8,3.7,3.1,7.7,6.3,8.9,7.1,1.3.9,1.4.3.2-2-5.6-11.2-22.3-28.7-37.5-39.6-24.4-17.6-53.2-29.2-80-32.4-9.2-1.1-9.1-1.1-19.7,0-8.3.9-19.1,4-27.9,8-6.2,2.8-18.9,10.9-18.2,11.6.2.2,4.6-.6,9.8-1.7h0Z"/>
  <path d="M1025,615.1c0,.6.8.8,1.8.5,6.6-2,36.5-4.9,56.2-5.3,39-1,65.1,3.9,94,17.3,23.8,11.2,48.2,33,56.6,50.6,1,2.1,2.1,3.8,2.6,3.8,1.1,0,1.1.4-1.7-8-11.6-34.1-47.9-62.3-91.6-71.4-15.1-3.1-41.1-4.5-54.4-2.9-20.4,2.4-36.7,5.8-52.7,10.9-6,1.9-10.8,4-10.8,4.5h0Z"/>
  <path d="M1109.5,704.5c32.7,15.7,62.9,19.5,88.5,11.3,8.7-2.8,19.9-8.5,20.7-10.5,1.2-3-7.7-17.5-17.2-28.1-4.6-5.2-16.3-14.4-17.4-13.8-.5.4-1.2,1.9-1.6,3.4-.8,3.5-6.5,11.3-10.7,14.5-21,16-52.8,15-69.8-2.2-12.8-13-17.3-31.7-11.6-48.4l2.3-6.7h-6.1c-3.4.2-8.8.8-12.1,1.5-7.9,1.8-20,6.2-25.2,9.2l-4.1,2.4,2.4,6.1c10.1,25.8,30.9,46.5,61.9,61.3h0Z"/>
  <path d="M1452.6,670.7c.7-.7-9.7-7.1-16.2-10-10.6-4.7-21.5-6.7-35.4-6.6-6.9,0-15.4.7-19,1.4-13.9,2.8-27.9,9.5-40.2,19.4-7.7,6.1-19.3,18-18.4,18.8.3.3,4.9-1.9,10.3-5,36.8-20.8,71.1-27.3,105.9-20.2,6.9,1.5,12.8,2.4,13,2.2h0Z"/>
  <path d="M1364.6,743.7c-8.5.7-19.2-1.4-27.5-5.2-3-1.4-5.6-2.3-5.9-2.1-1,1,14.6,10.1,23.5,13.7,18.3,7.5,26.5,8.5,38.3,4.5,14.8-5.1,30.1-16,40.5-29.1,3-3.8,5.5-7.3,5.5-7.7,0-1.6-12.5-13.9-17.7-17.4-7.5-4.9-25.3-10.9-25.3-8.5s1,3,2.1,5.6c3,6.8,2.3,17.8-1.5,25.4-5.9,11.5-18.6,19.8-32,20.8Z"/>
  <path d="M1345,868.8c17.9,5.2,26.9,6.5,42,6,17.3-.6,24.5-2.8,32.1-9.5,3.2-3,6.2-6.9,7.9-10.5l2.7-5.8,2.9,4.3c5,7.6,20,38.2,25.2,51.3,10.6,27.3,16.5,49,20.2,74.9,1.2,8.2,2.4,16.6,2.8,18.5.4,2.3.8,1.8,1.2-1.5.8-8-.8-33.8-3.1-48.9-6.7-44.3-21.5-78.7-44.4-103.6-2.9-3.1-3.3-4.4-3.9-11.1-1-11.3-7-33-12.2-43.7-5.2-10.8-9.3-14.4-18.2-16.3-6.9-1.4-13.4-.8-23,2.1-4.7,1.4-8.4,2-10.4,1.6-1.7-.3-9-4.2-16.2-8.5-15.5-9.3-20.9-12.1-29.4-15-8.2-2.8-13.5-2.6-20,.6-6.2,3.1-15.9,13-22.3,22.7-4,6.2-4.4,6.5-5.2,4.4-.5-1.3-1-5.8-1.1-10.1v-7.8c0,0-3.1.6-3.1.6-6.8,1.3-28.2,12.5-47.4,24.9l-9.4,6,5.1,4.6c27.7,25.6,87.5,58.4,127.2,69.8h0ZM1382.2,837.7c2.2-21,6.5-38.4,10.9-44.1,2.9-3.7,7.3-3.5,10.9.4,6.6,7,12.6,30.8,10.1,39.8-.9,3.1-2.2,4.9-4.9,6.7-4.8,3.1-14.1,5.5-21.7,5.5h-6.1l.8-8.3h0ZM1293.1,784.3c4-10.5,12.4-13.5,22.4-7.8,11,6.3,24.6,25.5,32.7,46.5,4.7,11.8,4.8,11.4-1.9,7.6-3.2-1.8-9.8-5.7-14.8-8.8-13.1-8-14-8.2-25.8-7.4-5.6.3-11.2.9-12.4,1.2-2,.5-2.2,0-2.8-6.8-.7-7.5.5-19.1,2.6-24.5h0Z"/>
  <path d="M1490.6,863c-.3-2.5-1-15-1.6-27.8-.5-12.9-1.7-27.7-2.5-32.9-2.2-13.5-5.2-22.3-6.8-19.6-.7,1.3-1.2,17.6-1,34.8,0,17.5,2.3,28.8,7.9,41.7,3.6,8.4,4.8,9.4,4,3.8Z"/>
</svg>